<svg xmlns="http://www.w3.org/2000/svg" width="38.651" height="27.058" viewBox="0 0 38.651 27.058">
  <path id="Icon_awesome-salesforce" data-name="Icon awesome-salesforce" d="M15.031,15.152H13.44a.85.85,0,0,1,.824-.853c.408,0,.723.231.768.853Zm8.253-.838c-.028,0-.852-.107-.852,1.208s.823,1.208.852,1.208c.785,0,.852-.818.852-1.208C24.136,14.208,23.311,14.314,23.284,14.314ZM8.6,15.749a.521.521,0,0,0-.2.44.452.452,0,0,0,.2.426c.284.223.91.128,1.264.057V15.649a1.919,1.919,0,0,0-1.264.1Zm30.055-1.42a8.353,8.353,0,0,1-9.986,8.239,6.116,6.116,0,0,1-7.984,2.514A6.95,6.95,0,0,1,7.768,24.77c-7.23,1.443-10.8-8.356-4.546-12.035A7.51,7.51,0,0,1,16.078,5.191,6.785,6.785,0,0,1,26.946,6.626,8.354,8.354,0,0,1,38.651,14.328ZM7.274,16.249c0-.71-.706-.916-1.079-1.037-.318-.127-.81-.212-.81-.54,0-.571,1.027-.4,1.52-.128,0,0,.071.043.1-.028.014-.042.143-.4.156-.44a.068.068,0,0,0-.042-.085c-.745-.461-2.458-.514-2.458.767,0,.752.694.932,1.08,1.037.285.1.8.181.8.525,0,.242-.213.426-.554.426a1.918,1.918,0,0,1-1.147-.383c-.028-.014-.086-.043-.1.043l-.145.451c-.028.057.014.071.014.085a2.421,2.421,0,0,0,1.378.4c.8,0,1.292-.426,1.292-1.094Zm1.933-2.571a2.551,2.551,0,0,0-1.292.313.06.06,0,0,0-.014.085l.156.426a.06.06,0,0,0,.071.042A2.386,2.386,0,0,1,9.15,14.3a.888.888,0,0,1,.554.143c.217.169.185.5.185.639a2.637,2.637,0,0,0-1.776.227,1.022,1.022,0,0,0-.443.878.986.986,0,0,0,.4.867,3.448,3.448,0,0,0,2.3.085c.1-.019.213-.04.213-.114V14.981c0-.278.019-1.307-1.376-1.307Zm2.811-1.267a.067.067,0,0,0-.071-.071h-.593a.067.067,0,0,0-.071.071v4.771a.067.067,0,0,0,.071.071h.6a.067.067,0,0,0,.071-.071Zm3.367,1.747a1.3,1.3,0,0,0-1.066-.455,1.525,1.525,0,0,0-1.25.54,2.079,2.079,0,0,0-.4,1.293,1.866,1.866,0,0,0,.426,1.279,1.75,1.75,0,0,0,1.378.5,2.122,2.122,0,0,0,1.122-.227c.028-.014.043-.043.014-.114l-.142-.412a.076.076,0,0,0-.085-.042,2.171,2.171,0,0,1-.923.17.927.927,0,0,1-1.023-1.009h2.245a.074.074,0,0,0,.071-.057,2.176,2.176,0,0,0-.368-1.463ZM17.6,17.34c.8,0,1.293-.426,1.293-1.094,0-.71-.707-.916-1.08-1.037-.25-.1-.81-.2-.81-.54,0-.227.2-.383.512-.383a2.3,2.3,0,0,1,1.009.255s.071.043.1-.028c.014-.042.142-.4.156-.44a.068.068,0,0,0-.042-.085,2.307,2.307,0,0,0-1.222-.3,1.112,1.112,0,0,0-1.236,1.065c0,.752.693.932,1.079,1.037.369.121.8.2.8.525,0,.242-.213.426-.554.426a1.92,1.92,0,0,1-1.147-.383.06.06,0,0,0-.1.043l-.142.454c-.028.057.014.071.014.085a2.419,2.419,0,0,0,1.376.4Zm3.965-3.494c0-.043-.014-.071-.071-.071h-.71a1.549,1.549,0,0,1,.27-.753c.251-.251.71-.1.725-.1.071.028.085,0,.1-.028l.171-.469c.042-.057,0-.071-.014-.085a1.521,1.521,0,0,0-1.477.256,2.179,2.179,0,0,0-.483,1.179h-.512a.077.077,0,0,0-.071.071l-.086.469c0,.042.014.071.071.071h.5c-.514,2.893-.528,3.032-.625,3.353a.691.691,0,0,1-.355.469.874.874,0,0,1-.582-.014s-.057-.028-.085.043c-.014.043-.156.412-.171.455s0,.085.028.085a1.75,1.75,0,0,0,1.08,0,1.224,1.224,0,0,0,.7-.781,26.08,26.08,0,0,0,.71-3.608h.739a.078.078,0,0,0,.071-.071Zm3.224.966a1.6,1.6,0,0,0-3.04,0,2.6,2.6,0,0,0,0,1.42,1.6,1.6,0,0,0,3.04,0A2.574,2.574,0,0,0,24.79,14.812ZM27.532,13.8a1.3,1.3,0,0,0-1.335.327v-.27a.067.067,0,0,0-.071-.071h-.568a.067.067,0,0,0-.071.071V17.2a.068.068,0,0,0,.071.071h.582a.068.068,0,0,0,.071-.071V15.521a1.272,1.272,0,0,1,.269-.909.887.887,0,0,1,.81-.185.1.1,0,0,0,.085-.057,4.468,4.468,0,0,0,.185-.483.07.07,0,0,0-.028-.085Zm2.827,3.267-.128-.44c-.028-.071-.085-.043-.085-.043a1.97,1.97,0,0,1-.682.114c-.28,0-1.037-.068-1.037-1.193,0-.376.112-1.193.995-1.193a2.1,2.1,0,0,1,.7.1s.057.028.071-.043c.057-.156.1-.27.156-.455.014-.057-.028-.071-.043-.071a2.433,2.433,0,0,0-1.676,0,1.666,1.666,0,0,0-.98,1.662,1.66,1.66,0,0,0,1.748,1.818,2.684,2.684,0,0,0,.937-.171.079.079,0,0,0,.028-.086Zm3.253-2.387a1.325,1.325,0,0,0-1.35-.98,1.492,1.492,0,0,0-1.548,1.123,2.33,2.33,0,0,0-.1.71,1.619,1.619,0,0,0,1.8,1.776,2.123,2.123,0,0,0,1.122-.227c.028-.014.043-.043.014-.114l-.143-.412a.076.076,0,0,0-.085-.042,2.171,2.171,0,0,1-.923.17.926.926,0,0,1-1.022-1.009h2.244a.075.075,0,0,0,.071-.057,3.059,3.059,0,0,0-.085-.938ZM32.205,14.3a.849.849,0,0,0-.824.853h1.593c-.053-.72-.46-.853-.769-.853Z" transform="translate(0 -2.25)" fill="#0092da"/>
</svg>
